<svg xmlns:xlink="http://www.w3.org/1999/xlink" xmlns="http://www.w3.org/2000/svg" class="icon" width="25" height="25"><defs><symbol xmlns="http://www.w3.org/2000/svg" viewBox="0 0 32 32" id="arabam-android">
    <path fill="#1A1A1A" d="M9.3 19.2c0 .4-.133.733-.4 1s-.6.4-1 .4-.75-.133-1.05-.4-.45-.6-.45-1v-5.8c0-.367.15-.683.45-.95s.642-.4 1.025-.4c.383 0 .717.133 1 .4s.425.583.425.95v5.8zm.5 2.05V12.3h12.4v8.95c0 .433-.15.792-.45 1.075s-.65.425-1.05.425h-1v3.05c0 .6-.233 1.008-.7 1.225s-.925.217-1.375 0c-.45-.217-.675-.625-.675-1.225v-3.05h-1.9v3.05c0 .567-.225.967-.675 1.2s-.908.242-1.375.025c-.467-.217-.7-.625-.7-1.225v-3.05h-1c-.4 0-.75-.142-1.05-.425s-.45-.642-.45-1.075zm-.05-9.45c0-1.033.292-1.992.875-2.875S11.983 7.35 12.95 6.85L12 5.1c-.067-.133-.042-.225.075-.275s.192-.025.225.075l1 1.75c.867-.367 1.775-.55 2.725-.55s1.842.183 2.675.55l1-1.75c.033-.1.108-.125.225-.075s.142.142.075.275l-.95 1.75c.967.5 1.733 1.192 2.3 2.075s.85 1.842.85 2.875H9.75zm3.95-2.75c0-.133-.05-.258-.15-.375s-.225-.175-.375-.175-.275.058-.375.175-.15.242-.15.375.05.25.15.35.225.15.375.15.275-.05.375-.15.15-.217.15-.35zm5.65 0c0-.133-.05-.258-.15-.375s-.217-.175-.35-.175c-.133 0-.258.058-.375.175s-.175.242-.175.375.058.25.175.35.242.15.375.15.25-.05.35-.15.15-.217.15-.35zm4.75 3c.4 0 .75.133 1.05.4s.45.583.45.95v5.8c0 .4-.15.733-.45 1s-.642.4-1.025.4c-.383 0-.717-.133-1-.4s-.425-.6-.425-1v-5.75c0-.4.142-.733.425-1s.608-.4.975-.4z">
    </path>
  </symbol></defs>
                     <use xlink:href="#arabam-android"></use>
                  </svg>