<svg xmlns:xlink="http://www.w3.org/1999/xlink" xmlns="http://www.w3.org/2000/svg" class="icon" width="25" height="25"><defs><symbol xmlns="http://www.w3.org/2000/svg" viewBox="0 0 32 32" id="arabam-huawei">
    <path fill="#1A1A1A" d="M22.297 1.6c5.933 0 8.103 2.17 8.103 8.103v12.594c0 5.933-2.174 8.103-8.107 8.103H9.703C3.77 30.4 1.6 28.23 1.6 22.297V9.703C1.6 3.77 3.77 1.6 9.703 1.6zm-9.926 14.402h-.764v2.155c0 .612-.304.939-.856.939-.555 0-.861-.336-.861-.965v-2.127h-.764v2.153c0 1.06.588 1.667 1.614 1.667 1.036 0 1.63-.619 1.63-1.698v-2.124zm7.21 0h-.623l-.855 2.589-.832-2.587h-.813l1.313 3.763h.632l.856-2.472.856 2.472h.638l1.309-3.763h-.792l-.834 2.587-.855-2.589zm-14.003.001h-.764v3.765h.764v-1.529h1.725v1.529h.764v-3.765h-.764v1.519H5.578v-1.519zm9.513 0h-.674l-1.659 3.763h.78l.343-.784h1.723l.338.784h.801l-1.652-3.763zm10.358.002h-2.771v3.761h2.843v-.686h-2.09v-.933h1.389v-.685h-1.389v-.771h2.017v-.686zm1.737-.003h-.754v3.761h.754v-3.761zm-12.446.953l.579 1.347h-1.155l.576-1.347zm-2.857-10.54h-.677c0 2.643 2.151 4.794 4.794 4.794s4.794-2.151 4.794-4.794h-.677c0 2.27-1.847 4.117-4.117 4.117s-4.117-1.847-4.117-4.117z">
    </path>
  </symbol></defs>
                     <use xlink:href="#arabam-huawei"></use>
                  </svg>