<svg xmlns:xlink="http://www.w3.org/1999/xlink" xmlns="http://www.w3.org/2000/svg" class="icon" width="26" height="26"><defs><symbol xmlns="http://www.w3.org/2000/svg" viewBox="0 0 32 32" id="arabam-instagram">
    <path fill="#1A1A1A" d="M16 10.25c1.033 0 1.992.258 2.875.775s1.583 1.217 2.1 2.1c.517.883.775 1.842.775 2.875s-.258 1.992-.775 2.875-1.217 1.583-2.1 2.1-1.842.775-2.875.775-1.992-.258-2.875-.775-1.583-1.217-2.1-2.1c-.517-.883-.775-1.842-.775-2.875s.258-1.992.775-2.875 1.217-1.583 2.1-2.1 1.842-.775 2.875-.775zm0 9.5c1.033 0 1.917-.367 2.65-1.1s1.1-1.617 1.1-2.65-.367-1.917-1.1-2.65-1.617-1.1-2.65-1.1-1.917.367-2.65 1.1-1.1 1.617-1.1 2.65.367 1.917 1.1 2.65 1.617 1.1 2.65 1.1zM23.35 10c-.033.367-.175.683-.425.95s-.558.4-.925.4-.683-.133-.95-.4-.4-.583-.4-.95.133-.683.4-.95.583-.4.95-.4.683.133.95.4.4.583.4.95zm3.8 1.35c.033.933.05 2.483.05 4.65s-.025 3.725-.075 4.675c-.05.95-.192 1.775-.425 2.475-.3.833-.758 1.558-1.375 2.175S23.983 26.4 23.15 26.7c-.7.233-1.525.375-2.475.425S18.167 27.2 16 27.2s-3.725-.025-4.675-.075-1.775-.208-2.475-.475c-.833-.267-1.558-.708-2.175-1.325S5.6 23.983 5.3 23.15c-.233-.7-.375-1.525-.425-2.475S4.8 18.167 4.8 16s.025-3.725.075-4.675.192-1.775.425-2.475c.3-.833.758-1.558 1.375-2.175S8.017 5.6 8.85 5.3c.7-.233 1.525-.375 2.475-.425S13.833 4.8 16 4.8s3.725.025 4.675.075 1.775.192 2.475.425c.833.3 1.558.758 2.175 1.375S26.4 8.017 26.7 8.85c.233.7.383 1.533.45 2.5zm-2.4 11.25c.2-.567.333-1.467.4-2.7.033-.733.05-1.767.05-3.1v-1.6c0-1.367-.017-2.4-.05-3.1-.067-1.267-.2-2.167-.4-2.7-.4-1.033-1.117-1.75-2.15-2.15-.533-.2-1.433-.333-2.7-.4a73.518 73.518 0 00-3.1-.05h-1.6c-1.333 0-2.367.017-3.1.05-1.233.067-2.133.2-2.7.4-1.033.4-1.75 1.117-2.15 2.15-.2.533-.333 1.433-.4 2.7-.033.733-.05 1.767-.05 3.1v1.6c0 1.333.017 2.367.05 3.1.067 1.233.2 2.133.4 2.7.433 1.033 1.15 1.75 2.15 2.15.567.2 1.467.333 2.7.4.733.033 1.767.05 3.1.05h1.6c1.367 0 2.4-.017 3.1-.05 1.267-.067 2.167-.2 2.7-.4 1.033-.433 1.75-1.15 2.15-2.15z">
    </path>
  </symbol></defs>
                     <use xlink:href="#arabam-instagram"></use>
                  </svg>