<svg xmlns:xlink="http://www.w3.org/1999/xlink" xmlns="http://www.w3.org/2000/svg" class="icon" width="25" height="25"><defs><symbol xmlns="http://www.w3.org/2000/svg" viewBox="0 0 32 32" id="arabam-apple">
    <path fill="#1A1A1A" d="M17.15 10.1c-.333.1-.8.167-1.4.2.033-1.433.417-2.625 1.15-3.575s1.817-1.592 3.25-1.925c.167.667.117 1.375-.15 2.125s-.667 1.417-1.2 2c-.533.583-1.083.975-1.65 1.175zm6.1 3.6a4.709 4.709 0 00-.9 3.1c.067 1 .392 1.917.975 2.75s1.275 1.367 2.075 1.6a12.826 12.826 0 01-1.95 3.8c-1.067 1.467-2.117 2.2-3.15 2.2-.467 0-1.125-.142-1.975-.425S16.8 26.3 16.3 26.3s-1.167.167-2 .5c-.733.267-1.3.4-1.7.4-.933 0-1.9-.6-2.9-1.8-.867-1.067-1.6-2.408-2.2-4.025s-.9-3.092-.9-4.425c0-1.867.45-3.467 1.35-4.8 1-1.433 2.317-2.15 3.95-2.15.633 0 1.533.167 2.7.5.767.2 1.3.3 1.6.3s.833-.117 1.6-.35c1.133-.367 2.033-.55 2.7-.55.9 0 1.7.2 2.4.6.633.367 1.25.917 1.85 1.65-.7.567-1.2 1.083-1.5 1.55z">
    </path>
  </symbol></defs>
                     <use xlink:href="#arabam-apple"></use>
                  </svg>