<svg xmlns:xlink="http://www.w3.org/1999/xlink" xmlns="http://www.w3.org/2000/svg" class="icon" width="26" height="26"><defs><symbol xmlns="http://www.w3.org/2000/svg" viewBox="0 0 32 32" id="arabam-twitter">
    <path fill="#1A1A1A" d="M26.15 10.8c.033.133.05.35.05.65 0 2.4-.583 4.717-1.75 6.95-1.2 2.367-2.883 4.25-5.05 5.65-2.367 1.567-5.083 2.35-8.15 2.35-2.933 0-5.617-.783-8.05-2.35.367.033.783.05 1.25.05 2.433 0 4.617-.75 6.55-2.25-1.167 0-2.192-.342-3.075-1.025S6.433 19.283 6.1 18.25c.333.033.65.05.95.05.467 0 .933-.05 1.4-.15-1.2-.267-2.2-.883-3-1.85s-1.2-2.067-1.2-3.3v-.1a4.943 4.943 0 002.35.7c-.7-.5-1.267-1.133-1.7-1.9s-.65-1.608-.65-2.525c0-.917.25-1.792.75-2.625 1.3 1.633 2.892 2.933 4.775 3.9s3.892 1.5 6.025 1.6c-.067-.4-.1-.8-.1-1.2 0-.933.233-1.808.7-2.625s1.1-1.458 1.9-1.925c.8-.467 1.667-.7 2.6-.7.767 0 1.475.15 2.125.45s1.225.7 1.725 1.2A10.67 10.67 0 0028.1 6c-.4 1.233-1.167 2.2-2.3 2.9 1-.133 2-.417 3-.85a11.54 11.54 0 01-2.65 2.75z">
    </path>
  </symbol></defs>
                     <use xlink:href="#arabam-twitter"></use>
                  </svg>