<svg xmlns:xlink="http://www.w3.org/1999/xlink" xmlns="http://www.w3.org/2000/svg" class="icon" width="26" height="26"><defs><symbol xmlns="http://www.w3.org/2000/svg" viewBox="0 0 32 32" id="arabam-youtube">
    <path fill="#1A1A1A" d="M29.1 9.4c.233.9.4 2.267.5 4.1l.05 2.5-.05 2.5c-.1 1.867-.267 3.25-.5 4.15-.167.567-.467 1.067-.9 1.5s-.95.733-1.55.9c-.867.233-2.9.4-6.1.5L16 25.6l-4.55-.05c-3.2-.1-5.233-.267-6.1-.5-.6-.167-1.117-.467-1.55-.9s-.733-.933-.9-1.5c-.233-.9-.4-2.283-.5-4.15L2.35 16c0-.733.017-1.567.05-2.5.1-1.833.267-3.2.5-4.1.167-.6.467-1.117.9-1.55s.95-.733 1.55-.9c.867-.233 2.9-.4 6.1-.5L16 6.4l4.55.05c3.2.1 5.233.267 6.1.5.6.167 1.117.467 1.55.9s.733.95.9 1.55zM13.2 20.1l7.15-4.1-7.15-4.05v8.15z">
    </path>
  </symbol></defs>
                     <use xlink:href="#arabam-youtube"></use>
                  </svg>